<svg width="60" height="60" viewBox="0 0 60 60" fill="none" xmlns="http://www.w3.org/2000/svg">
<path d="M60 6.42857V53.5714C60 57.1205 57.1205 60 53.5714 60H42.1473V36.2679H50.2634L51.4286 27.2143H42.1473V21.4286C42.1473 18.8036 42.8705 17.0223 46.6339 17.0223H51.4286V8.93304C50.5982 8.82589 47.7589 8.57143 44.4375 8.57143C37.5268 8.57143 32.7857 12.7902 32.7857 20.5446V27.2277H24.6429V36.2812H32.7991V60H6.42857C2.87946 60 0 57.1205 0 53.5714V6.42857C0 2.87946 2.87946 0 6.42857 0H53.5714C57.1205 0 60 2.87946 60 6.42857Z" fill="white"/>
</svg>
