<svg width="60" height="60" viewBox="0 0 60 60" fill="none" xmlns="http://www.w3.org/2000/svg">
<path d="M51.0134 8.71875C45.4018 3.09375 37.9286 0 29.9866 0C13.5937 0 0.254464 13.3393 0.254464 29.7321C0.254464 34.9687 1.62054 40.0848 4.21875 44.5982L0 60L15.7634 55.8616C20.1027 58.2321 24.9911 59.4777 29.9732 59.4777H29.9866C46.3661 59.4777 60 46.1384 60 29.7455C60 21.8036 56.625 14.3437 51.0134 8.71875V8.71875ZM29.9866 54.4687C25.5402 54.4687 21.1875 53.2768 17.3973 51.0268L16.5 50.4911L7.15179 52.942L9.64286 43.8214L9.05357 42.8839C6.57589 38.9464 5.27679 34.4062 5.27679 29.7321C5.27679 16.1116 16.3661 5.02232 30 5.02232C36.6027 5.02232 42.8036 7.59375 47.4643 12.2679C52.125 16.942 54.9911 23.1429 54.9777 29.7455C54.9777 43.3795 43.6071 54.4687 29.9866 54.4687V54.4687ZM43.5402 35.9598C42.8036 35.5848 39.1473 33.7902 38.4643 33.5491C37.7813 33.2946 37.2857 33.1741 36.7902 33.9241C36.2946 34.6741 34.875 36.3348 34.433 36.8437C34.0045 37.3393 33.5625 37.4062 32.8259 37.0312C28.4598 34.8482 25.5938 33.1339 22.7143 28.192C21.9509 26.8795 23.4777 26.9732 24.8973 24.1339C25.1384 23.6384 25.0179 23.2098 24.8304 22.8348C24.6429 22.4598 23.1562 18.8036 22.5402 17.317C21.9375 15.8705 21.3214 16.0714 20.8661 16.0446C20.4375 16.0179 19.942 16.0179 19.4464 16.0179C18.9509 16.0179 18.1473 16.2054 17.4643 16.942C16.7812 17.692 14.8661 19.4866 14.8661 23.1429C14.8661 26.7991 17.5313 30.3348 17.8929 30.8304C18.2679 31.3259 23.1295 38.8259 30.5893 42.0536C35.3036 44.0893 37.1518 44.2634 39.5089 43.9152C40.942 43.7009 43.9018 42.1205 44.5179 40.3795C45.1339 38.6384 45.1339 37.1518 44.9464 36.8437C44.7723 36.5089 44.2768 36.3214 43.5402 35.9598Z" fill="white"/>
</svg>
