<?xml version="1.0" encoding="utf-8"?>
<!-- Generator: Adobe Illustrator 22.1.0, SVG Export Plug-In . SVG Version: 6.00 Build 0)  -->
<svg version="1.1" id="Layer_1" xmlns="http://www.w3.org/2000/svg" xmlns:xlink="http://www.w3.org/1999/xlink" x="0px" y="0px"
	 viewBox="0 0 22 17.6" style="enable-background:new 0 0 22 17.6;" xml:space="preserve">
<style type="text/css">
  .st1{fill:#FFFFFF;}
</style>
<path class="st1" d="M21.2,11h-1.6V9.4c0-0.8-0.6-1.4-1.4-1.4h-6.3V6.6h1.7c0.5,0,0.8-0.4,0.8-0.8v-5c0-0.5-0.4-0.8-0.8-0.8h-5
	C8.1,0,7.7,0.4,7.7,0.8v5c0,0.5,0.4,0.8,0.8,0.8h1.7V8H3.8C3.1,8,2.5,8.6,2.5,9.4V11H0.8C0.4,11,0,11.4,0,11.8v4.9
	c0,0.5,0.4,0.8,0.8,0.8h5c0.5,0,0.8-0.4,0.8-0.8v-4.9c0-0.5-0.4-0.8-0.8-0.8H4.1V9.6h6.1V11H8.5c-0.5,0-0.8,0.4-0.8,0.8v4.9
	c0,0.5,0.4,0.8,0.8,0.8h5c0.5,0,0.8-0.4,0.8-0.8v-4.9c0-0.5-0.4-0.8-0.8-0.8h-1.7V9.6h6.1V11h-1.6c-0.5,0-0.8,0.4-0.8,0.8v4.9
	c0,0.5,0.4,0.8,0.8,0.8h4.9c0.5,0,0.8-0.4,0.8-0.8v-4.9C22,11.4,21.6,11,21.2,11z"/>
</svg>
