<?xml version="1.0" encoding="utf-8"?>
<!-- Generator: Adobe Illustrator 22.1.0, SVG Export Plug-In . SVG Version: 6.00 Build 0)  -->
<svg version="1.1" id="Layer_1" xmlns="http://www.w3.org/2000/svg" xmlns:xlink="http://www.w3.org/1999/xlink" x="0px" y="0px"
	 viewBox="0 0 640 512" style="enable-background:new 0 0 640 512;" xml:space="preserve">
<style type="text/css">
	.st0{fill:#DBDFE2;}
</style>
<path class="st0" d="M224,256c70.7,0,128-57.3,128-128S294.7,0,224,0S96,57.3,96,128S153.3,256,224,256z M313.6,288h-16.7
	C274.7,298.2,250,462.4,224,462.4S173.4,298.2,151.1,288h-16.7C60.2,288,0,348.2,0,422.4V464c0,26.5,21.5,48,48,48h274.9
	c-2.4-6.8-3.4-14-2.6-21.3l6.8-60.9l1.2-11.1l7.9-7.9l77.3-77.3C389,305.8,353.5,288,313.6,288z M358.9,433.3l-6.8,61
	c-1.1,10.2,7.5,18.8,17.6,17.6l60.9-6.8l137.9-137.9l-71.7-71.7L358.9,433.3z M633,268.9L595.1,231c-9.3-9.3-24.5-9.3-33.8,0
	l-37.8,37.8l-4.1,4.1l71.8,71.7l41.8-41.8C642.3,293.4,642.3,278.3,633,268.9z"/>
<g transform="translate(0.000000,1280.000000) scale(0.100000,-0.100000)">
	<path class="st0" d="M2203,9913.9c-77.7-1.1-139.1-4.1-165.6-8.1c-25.3-3.8-22.6-2.4-51.6-24.5c-32.7-24.8-31.2-23.6-31.2-24.7
		c0-0.6,14.1-22.4,31.3-48.8c21.2-32.4,47.4-75.7,80.8-133.7c27.1-47.1,49.7-86.1,50.1-86.5c0.3-0.5,0.2,0.8-0.3,2.7
		c-1.8,5.4,0.2,3.8,2.1-2c1.5-4.8,1.1-6.8-8.4-28.9c-13.8-32.7-36.9-84.6-56.4-127.2c-10.2-22.3-17.9-41.1-20.2-49.7
		c-12.6-48.3-28.7-169.2-46.7-348.9c-12.9-130.5-18.5-194.5-36-409.4c-12.2-148.4-27.8-364.7-26.6-365.9
		c0.5-0.6,76.6-56.6,169.2-124.6l168.1-123.7l12.5,11c12.6,11.1,73.9,64.1,206.5,178.8c40.6,35.1,74.2,64.1,75,64.7
		c1.1,0.9-7.5,86.1-25.3,254.4c-3.8,35.2-9.9,92.7-13.7,127.9c-14,132.3-24.2,227.1-39.9,368c-20.8,187.8-41.5,353.4-48.8,388
		c-3.9,19-17.9,51.3-41.7,96.6c-14.3,27.2-18.1,34-41.4,74.8l-12.5,22.1l5.1,9.5c2.7,5.3,36.4,67.3,74.7,137.9
		c66.8,123.3,69.4,128.5,68.5,134.3c-1.2,7.4-10.4,21.7-15.4,23.9C2443.5,9911.9,2353,9916,2203,9913.9z"/>
</g>
</svg>
