<svg width="238" height="190" viewBox="0 0 238 190" fill="none" xmlns="http://www.w3.org/2000/svg">
<path d="M103.717 189.815L81.0345 183.246C78.6547 182.578 77.3161 180.092 77.9854 177.716L128.742 3.21496C129.412 0.839784 131.903 -0.496254 134.283 0.171765L156.965 6.74062C159.345 7.40864 160.684 9.89515 160.015 12.2703L109.258 186.772C108.551 189.147 106.097 190.52 103.717 189.815V189.815ZM61.3267 148.175L77.502 130.955C79.2125 129.137 79.1009 126.242 77.2045 124.572L43.5153 94.9934L77.2045 65.415C79.1009 63.7449 79.2497 60.8502 77.502 59.0317L61.3267 41.8116C59.6534 40.0302 56.8274 39.9189 55.0053 41.6261L1.42231 91.7275C-0.474104 93.4718 -0.474104 96.4778 1.42231 98.2221L55.0053 148.361C56.8274 150.068 59.6534 149.994 61.3267 148.175V148.175ZM182.995 148.398L236.578 98.2592C238.474 96.5149 238.474 93.5089 236.578 91.7646L182.995 41.5889C181.21 39.9189 178.384 39.9931 176.673 41.7745L160.498 58.9946C158.788 60.813 158.899 63.7078 160.795 65.3778L194.485 94.9934L160.795 124.572C158.899 126.242 158.75 129.137 160.498 130.955L176.673 148.175C178.347 149.994 181.173 150.068 182.995 148.398V148.398Z" fill="#F5C453"/>
</svg>
