<svg width="33" height="32" viewBox="0 0 33 32" fill="none" xmlns="http://www.w3.org/2000/svg">
<path d="M10.9622 25.7664C10.9622 25.8987 10.8102 26.0046 10.6186 26.0046C10.4005 26.0244 10.2485 25.9185 10.2485 25.7664C10.2485 25.634 10.4005 25.5281 10.5921 25.5281C10.7904 25.5083 10.9622 25.6142 10.9622 25.7664ZM8.90718 25.4686C8.86093 25.6009 8.99308 25.7531 9.19131 25.7928C9.36311 25.859 9.56134 25.7928 9.60099 25.6605C9.64064 25.5281 9.51509 25.376 9.31686 25.3164C9.14506 25.2701 8.95344 25.3363 8.90718 25.4686ZM11.8278 25.3561C11.6362 25.4024 11.504 25.5281 11.5238 25.6803C11.5437 25.8127 11.7155 25.8987 11.9137 25.8524C12.1053 25.8061 12.2375 25.6803 12.2176 25.548C12.1978 25.4223 12.0194 25.3363 11.8278 25.3561ZM16.1757 0C7.01077 0 0 6.96764 0 16.1453C0 23.4835 4.61218 29.763 11.2001 31.973C12.0458 32.1252 12.3432 31.6025 12.3432 31.1724C12.3432 30.7621 12.3234 28.4991 12.3234 27.1096C12.3234 27.1096 7.69797 28.1021 6.72664 25.1377C6.72664 25.1377 5.97336 23.2122 4.8897 22.7159C4.8897 22.7159 3.37654 21.6771 4.99542 21.6969C4.99542 21.6969 6.64074 21.8293 7.546 23.4041C8.99308 25.9582 11.4181 25.2238 12.363 24.787C12.515 23.7283 12.9445 22.9939 13.4202 22.5571C9.72654 22.1469 5.99979 21.6109 5.99979 15.2454C5.99979 13.4258 6.50198 12.5126 7.55921 11.348C7.38741 10.9179 6.82576 9.14461 7.73101 6.85515C9.11202 6.42505 12.2903 8.64172 12.2903 8.64172C13.6119 8.27117 15.0325 8.07928 16.44 8.07928C17.8474 8.07928 19.2681 8.27117 20.5896 8.64172C20.5896 8.64172 23.7679 6.41843 25.1489 6.85515C26.0542 9.15122 25.4925 10.9179 25.3207 11.348C26.3779 12.5192 27.0255 13.4324 27.0255 15.2454C27.0255 21.6308 23.1336 22.1403 19.4399 22.5571C20.0478 23.0799 20.5632 24.0724 20.5632 25.6274C20.5632 27.8573 20.5433 30.6166 20.5433 31.1592C20.5433 31.5893 20.8473 32.112 21.6865 31.9598C28.2942 29.763 32.7742 23.4835 32.7742 16.1453C32.7742 6.96764 25.3405 0 16.1757 0ZM6.42269 22.8218C6.33679 22.888 6.35661 23.0402 6.46894 23.1659C6.57466 23.2718 6.72664 23.3181 6.81254 23.2321C6.89844 23.1659 6.87862 23.0137 6.76629 22.888C6.66056 22.7821 6.50859 22.7358 6.42269 22.8218ZM5.70905 22.2858C5.6628 22.3719 5.72888 22.4777 5.86103 22.5439C5.96675 22.6101 6.09891 22.5902 6.14516 22.4976C6.19142 22.4116 6.12534 22.3057 5.99319 22.2395C5.86103 22.1998 5.75531 22.2197 5.70905 22.2858ZM7.84995 24.6415C7.74423 24.7275 7.78387 24.926 7.93585 25.0517C8.08783 25.2039 8.27945 25.2238 8.36535 25.1179C8.45125 25.0319 8.4116 24.8334 8.27945 24.7076C8.13408 24.5555 7.93585 24.5356 7.84995 24.6415ZM7.09667 23.6688C6.99095 23.735 6.99095 23.907 7.09667 24.0592C7.20239 24.2114 7.3808 24.2775 7.4667 24.2114C7.57243 24.1254 7.57243 23.9533 7.4667 23.8011C7.3742 23.6489 7.20239 23.5828 7.09667 23.6688Z" fill="#929292"/>
</svg>
