<svg width="49" height="31" viewBox="0 0 49 31" fill="none" xmlns="http://www.w3.org/2000/svg">
<path d="M22.1484 28.9141C21.888 29.2786 21.5885 29.5521 21.25 29.7344C20.9115 29.9427 20.5859 30.0859 20.2734 30.1641C19.9089 30.2682 19.5182 30.3073 19.1016 30.2812C18.9453 30.2812 18.776 30.2422 18.5938 30.1641C18.4375 30.112 18.2682 30.0339 18.0859 29.9297C17.9036 29.8516 17.7474 29.7214 17.6172 29.5391C17.2526 28.237 16.9271 26.974 16.6406 25.75C16.3542 24.526 16.1068 23.4323 15.8984 22.4688C15.638 21.349 15.4167 20.2943 15.2344 19.3047C14.5312 19.2786 13.4766 19.2786 12.0703 19.3047C10.6901 19.3047 9.19271 19.3828 7.57812 19.5391C7.08333 21.1016 6.69271 22.4167 6.40625 23.4844C6.11979 24.5521 5.91146 25.4375 5.78125 26.1406C5.65104 26.8438 5.59896 27.4167 5.625 27.8594C5.65104 28.3281 5.72917 28.7318 5.85938 29.0703C5.49479 29.4349 5.13021 29.6953 4.76562 29.8516C4.42708 30.0339 4.11458 30.151 3.82812 30.2031C3.48958 30.2812 3.16406 30.3073 2.85156 30.2812C2.4349 30.2292 2.09635 30.151 1.83594 30.0469C1.57552 29.9688 1.38021 29.8255 1.25 29.6172C1.14583 29.4349 1.10677 29.1615 1.13281 28.7969C1.1849 28.4323 1.28906 27.9505 1.44531 27.3516C1.60156 26.8307 1.88802 25.9062 2.30469 24.5781C2.7474 23.224 3.24219 21.6875 3.78906 19.9688C2.79948 20.0469 2.03125 19.9948 1.48438 19.8125C0.963542 19.6302 0.598958 19.1354 0.390625 18.3281C0.807292 18.1979 1.25 18.0807 1.71875 17.9766C2.21354 17.8464 2.68229 17.7292 3.125 17.625C3.61979 17.5208 4.1276 17.4297 4.64844 17.3516C5.19531 15.6328 5.75521 13.9401 6.32812 12.2734C6.90104 10.6068 7.4349 9.10938 7.92969 7.78125L10.1953 1.72656C10.2474 1.57031 10.5208 1.40104 11.0156 1.21875C11.5104 1.03646 12.0573 0.893229 12.6562 0.789062C13.2552 0.658854 13.8281 0.59375 14.375 0.59375C14.9219 0.59375 15.2734 0.710938 15.4297 0.945312C15.5078 1.49219 15.612 2.16927 15.7422 2.97656C15.8984 3.78385 16.0417 4.5651 16.1719 5.32031C16.3281 6.20573 16.5104 7.11719 16.7188 8.05469C16.9531 9.35677 17.2005 10.8021 17.4609 12.3906C17.7474 13.9792 18.099 15.6719 18.5156 17.4688C18.9323 19.2656 19.4271 21.1276 20 23.0547C20.5729 24.9818 21.2891 26.9349 22.1484 28.9141ZM11.2891 16.6875C12.1224 16.6615 12.8125 16.6484 13.3594 16.6484C13.9062 16.6484 14.375 16.6615 14.7656 16.6875L14.6484 16.1016C14.4922 15.138 14.3229 14.1094 14.1406 13.0156C13.9844 11.9219 13.8151 10.8411 13.6328 9.77344C13.4766 8.70573 13.3203 7.6901 13.1641 6.72656C13.0078 5.76302 12.8776 4.91667 12.7734 4.1875C12.513 4.86458 12.2135 5.6849 11.875 6.64844C11.5365 7.58594 11.1719 8.61458 10.7812 9.73438C10.3906 10.8542 9.98698 12.026 9.57031 13.25C9.17969 14.474 8.78906 15.6849 8.39844 16.8828C8.86719 16.8307 9.33594 16.7917 9.80469 16.7656C10.2734 16.7396 10.7682 16.7135 11.2891 16.6875ZM45.5078 30.3203C44.7266 30.2943 44.1927 30.0469 43.9062 29.5781C43.6198 29.1354 43.4505 28.5104 43.3984 27.7031C43.3464 26.8958 43.3724 25.9453 43.4766 24.8516C43.5807 23.7318 43.6328 22.5208 43.6328 21.2188C43.6589 18.6406 43.75 16.2969 43.9062 14.1875C44.0885 12.0521 44.1406 9.98177 44.0625 7.97656C44.0625 7.82031 44.0625 7.67708 44.0625 7.54688C44.0625 7.41667 44.0495 7.28646 44.0234 7.15625C43.8932 7.59896 43.737 8.10677 43.5547 8.67969C43.3984 9.22656 43.2031 9.83854 42.9688 10.5156C42.5 11.974 42.0312 13.4714 41.5625 15.0078C41.1198 16.5443 40.6771 18.0417 40.2344 19.5C39.8177 20.9323 39.4141 22.2734 39.0234 23.5234C38.6589 24.7474 38.3333 25.776 38.0469 26.6094C37.7604 27.4427 37.474 28.0547 37.1875 28.4453C36.9271 28.862 36.6536 29.1484 36.3672 29.3047C36.1068 29.4609 35.8333 29.526 35.5469 29.5C35.2865 29.474 35.026 29.4479 34.7656 29.4219C34.6615 28.5365 34.4661 27.4948 34.1797 26.2969C33.8932 25.099 33.5938 23.9531 33.2812 22.8594C32.9167 21.5833 32.513 20.2812 32.0703 18.9531C31.4714 16.6615 30.8464 14.5651 30.1953 12.6641C29.5443 10.763 29.0365 9.20052 28.6719 7.97656C28.5156 9.30469 28.3984 10.8281 28.3203 12.5469C28.2422 14.2656 28.1901 15.9844 28.1641 17.7031C28.138 19.4219 28.151 21.0495 28.2031 22.5859C28.2552 24.0964 28.3333 25.3203 28.4375 26.2578C28.4635 26.6484 28.5156 27.0391 28.5938 27.4297C28.6458 27.7682 28.7109 28.1068 28.7891 28.4453C28.8932 28.8099 29.0104 29.1354 29.1406 29.4219C29.0104 29.526 28.8542 29.6172 28.6719 29.6953C28.4896 29.7734 28.2943 29.8385 28.0859 29.8906C27.8516 29.9688 27.6042 30.0339 27.3438 30.0859C26.3281 30.2943 25.5859 30.2682 25.1172 30.0078C24.6745 29.7474 24.401 29.2266 24.2969 28.4453C24.2448 28.0547 24.2057 27.3255 24.1797 26.2578C24.1536 25.1901 24.1406 23.9661 24.1406 22.5859C24.1667 21.1797 24.2057 19.7083 24.2578 18.1719C24.3099 16.6354 24.388 15.2031 24.4922 13.875C24.5964 12.8073 24.7005 11.6484 24.8047 10.3984C24.9089 9.30469 25.013 8.04167 25.1172 6.60938C25.2214 5.17708 25.3385 3.6276 25.4688 1.96094C25.5469 1.80469 25.6771 1.67448 25.8594 1.57031C26.0417 1.4401 26.237 1.33594 26.4453 1.25781C26.6797 1.15365 26.9401 1.07552 27.2266 1.02344C27.6693 0.945312 28.0599 0.880208 28.3984 0.828125C28.6849 0.776042 28.9453 0.736979 29.1797 0.710938C29.4401 0.684896 29.5443 0.684896 29.4922 0.710938C29.8307 1.41406 30.0911 2 30.2734 2.46875C30.4557 2.91146 30.638 3.44531 30.8203 4.07031C31.0286 4.69531 31.276 5.51562 31.5625 6.53125C31.875 7.54688 32.3177 8.96615 32.8906 10.7891C33.6719 13.3151 34.3359 15.5156 34.8828 17.3906C35.4557 19.2656 35.8854 20.6979 36.1719 21.6875C36.3542 21.349 36.5365 20.9844 36.7188 20.5938C36.901 20.1771 37.0833 19.6823 37.2656 19.1094C37.474 18.5365 37.6823 17.8724 37.8906 17.1172C38.125 16.3359 38.3854 15.4115 38.6719 14.3438C39.0365 13.1719 39.4141 11.9089 39.8047 10.5547C40.1172 9.40885 40.4557 8.10677 40.8203 6.64844C41.2109 5.16406 41.5755 3.6276 41.9141 2.03906C42.7474 1.70052 43.4245 1.45312 43.9453 1.29688C44.4661 1.11458 44.8698 0.971354 45.1562 0.867188C45.4948 0.763021 45.7422 0.697917 45.8984 0.671875C46.0547 0.697917 46.2109 0.776042 46.3672 0.90625C46.4974 1.03646 46.6536 1.21875 46.8359 1.45312C47.0182 1.6875 47.2135 2.03906 47.4219 2.50781C47.4219 2.8724 47.4219 3.45833 47.4219 4.26562C47.4219 5.07292 47.4219 6.01042 47.4219 7.07812C47.4219 8.11979 47.4089 9.2526 47.3828 10.4766C47.3568 11.7005 47.3307 12.9375 47.3047 14.1875C47.3047 15.4115 47.2917 16.6094 47.2656 17.7812C47.2656 18.9531 47.2526 19.9948 47.2266 20.9062C47.1745 22.2865 47.1615 23.4583 47.1875 24.4219C47.2396 25.3854 47.3177 26.1927 47.4219 26.8438C47.5521 27.4688 47.7083 27.9766 47.8906 28.3672C48.099 28.7578 48.3464 29.0703 48.6328 29.3047C48.5547 29.3568 48.3984 29.4349 48.1641 29.5391C47.9557 29.6693 47.6953 29.7865 47.3828 29.8906C47.0703 30.0208 46.7448 30.125 46.4062 30.2031C46.0677 30.2812 45.7682 30.3203 45.5078 30.3203Z" fill="white"/>
</svg>
