<svg width="323" height="56" viewBox="0 0 323 56" fill="none" xmlns="http://www.w3.org/2000/svg">
<path d="M33.2227 42.8711C32.832 43.418 32.3828 43.8281 31.875 44.1016C31.3672 44.4141 30.8789 44.6289 30.4102 44.7461C29.8633 44.9023 29.2773 44.9609 28.6523 44.9219C28.418 44.9219 28.1641 44.8633 27.8906 44.7461C27.6562 44.668 27.4023 44.5508 27.1289 44.3945C26.8555 44.2773 26.6211 44.082 26.4258 43.8086C25.8789 41.8555 25.3906 39.9609 24.9609 38.125C24.5312 36.2891 24.1602 34.6484 23.8477 33.2031C23.457 31.5234 23.125 29.9414 22.8516 28.457C21.7969 28.418 20.2148 28.418 18.1055 28.457C16.0352 28.457 13.7891 28.5742 11.3672 28.8086C10.625 31.1523 10.0391 33.125 9.60938 34.7266C9.17969 36.3281 8.86719 37.6562 8.67188 38.7109C8.47656 39.7656 8.39844 40.625 8.4375 41.2891C8.47656 41.9922 8.59375 42.5977 8.78906 43.1055C8.24219 43.6523 7.69531 44.043 7.14844 44.2773C6.64062 44.5508 6.17188 44.7266 5.74219 44.8047C5.23438 44.9219 4.74609 44.9609 4.27734 44.9219C3.65234 44.8438 3.14453 44.7266 2.75391 44.5703C2.36328 44.4531 2.07031 44.2383 1.875 43.9258C1.71875 43.6523 1.66016 43.2422 1.69922 42.6953C1.77734 42.1484 1.93359 41.4258 2.16797 40.5273C2.40234 39.7461 2.83203 38.3594 3.45703 36.3672C4.12109 34.3359 4.86328 32.0312 5.68359 29.4531C4.19922 29.5703 3.04688 29.4922 2.22656 29.2188C1.44531 28.9453 0.898438 28.2031 0.585938 26.9922C1.21094 26.7969 1.875 26.6211 2.57812 26.4648C3.32031 26.2695 4.02344 26.0938 4.6875 25.9375C5.42969 25.7812 6.19141 25.6445 6.97266 25.5273C7.79297 22.9492 8.63281 20.4102 9.49219 17.9102C10.3516 15.4102 11.1523 13.1641 11.8945 11.1719L15.293 2.08984C15.3711 1.85547 15.7812 1.60156 16.5234 1.32812C17.2656 1.05469 18.0859 0.839844 18.9844 0.683594C19.8828 0.488281 20.7422 0.390625 21.5625 0.390625C22.3828 0.390625 22.9102 0.566406 23.1445 0.917969C23.2617 1.73828 23.418 2.75391 23.6133 3.96484C23.8477 5.17578 24.0625 6.34766 24.2578 7.48047C24.4922 8.80859 24.7656 10.1758 25.0781 11.582C25.4297 13.5352 25.8008 15.7031 26.1914 18.0859C26.6211 20.4688 27.1484 23.0078 27.7734 25.7031C28.3984 28.3984 29.1406 31.1914 30 34.082C30.8594 36.9727 31.9336 39.9023 33.2227 42.8711ZM16.9336 24.5312C18.1836 24.4922 19.2188 24.4727 20.0391 24.4727C20.8594 24.4727 21.5625 24.4922 22.1484 24.5312L21.9727 23.6523C21.7383 22.207 21.4844 20.6641 21.2109 19.0234C20.9766 17.3828 20.7227 15.7617 20.4492 14.1602C20.2148 12.5586 19.9805 11.0352 19.7461 9.58984C19.5117 8.14453 19.3164 6.875 19.1602 5.78125C18.7695 6.79688 18.3203 8.02734 17.8125 9.47266C17.3047 10.8789 16.7578 12.4219 16.1719 14.1016C15.5859 15.7812 14.9805 17.5391 14.3555 19.375C13.7695 21.2109 13.1836 23.0273 12.5977 24.8242C13.3008 24.7461 14.0039 24.6875 14.707 24.6484C15.4102 24.6094 16.1523 24.5703 16.9336 24.5312ZM54.4336 2.79297C54.4336 3.22266 54.3945 4.0625 54.3164 5.3125C54.2383 6.5625 54.1406 8.06641 54.0234 9.82422C53.9062 11.582 53.7891 13.5156 53.6719 15.625C53.5547 17.7344 53.457 19.8828 53.3789 22.0703C53.3008 24.2578 53.2227 26.3086 53.1445 28.2227C53.1055 30.0977 53.0859 31.7773 53.0859 33.2617C53.125 34.7461 53.2031 35.9961 53.3203 37.0117C53.4375 37.9883 53.6133 38.6523 53.8477 39.0039L51.2109 40C51.0156 40.0781 50.7812 40.1172 50.5078 40.1172C50.2344 40.1172 49.9414 40.0391 49.6289 39.8828C49.3555 39.7266 49.1211 39.4531 48.9258 39.0625C48.7305 38.6719 48.6328 38.125 48.6328 37.4219C48.6328 37.1484 48.6328 36.8164 48.6328 36.4258C48.6719 35.9961 48.6914 35.5078 48.6914 34.9609C48.2227 35.7422 47.7148 36.5039 47.168 37.2461C46.6211 37.9883 46.0156 38.6328 45.3516 39.1797C44.7266 39.7266 44.043 40.1562 43.3008 40.4688C42.5586 40.8203 41.7773 40.9961 40.957 40.9961C40.1758 40.9961 39.4141 40.8203 38.6719 40.4688C37.9297 40.1562 37.2656 39.668 36.6797 39.0039C36.0938 38.3398 35.6055 37.4805 35.2148 36.4258C34.8633 35.3711 34.6875 34.1016 34.6875 32.6172C34.6875 29.9219 35 27.5781 35.625 25.5859C36.25 23.5547 37.0312 21.875 37.9688 20.5469C38.9453 19.1797 39.9805 18.1641 41.0742 17.5C42.207 16.7969 43.2422 16.4453 44.1797 16.4453C45.625 16.4453 46.7383 16.8359 47.5195 17.6172C48.3008 18.3594 48.8672 19.1406 49.2188 19.9609C49.2578 18.8281 49.2773 17.7734 49.2773 16.7969C49.3164 15.7812 49.3359 14.9219 49.3359 14.2188C49.3359 11.3281 49.2773 8.75 49.1602 6.48438C49.043 4.21875 48.75 2.5 48.2812 1.32812C48.8281 1.01562 49.3164 0.78125 49.7461 0.625C50.2148 0.46875 50.625 0.351563 50.9766 0.273438C51.4062 0.15625 51.7773 0.0976562 52.0898 0.0976562C52.9492 0.0976562 53.5547 0.351563 53.9062 0.859375C54.2578 1.32812 54.4336 1.97266 54.4336 2.79297ZM48.8672 29.9805C48.9453 28.9648 48.9844 27.9102 48.9844 26.8164C49.0234 25.6836 49.0625 24.5508 49.1016 23.418C48.8281 23.8477 48.4961 24.2188 48.1055 24.5312C47.7539 24.8438 47.3633 24.9219 46.9336 24.7656C47.0898 23.5938 47.0703 22.6953 46.875 22.0703C46.7188 21.4453 46.4844 20.9766 46.1719 20.6641C45.8203 20.3125 45.4102 20.1172 44.9414 20.0781C44.2383 20.0781 43.5352 20.4688 42.832 21.25C42.168 22.0312 41.5625 23.0078 41.0156 24.1797C40.5078 25.3125 40.0977 26.543 39.7852 27.8711C39.4727 29.1602 39.3164 30.3516 39.3164 31.4453C39.3164 33.6328 39.6094 35.1562 40.1953 36.0156C40.8203 36.875 41.4844 37.3047 42.1875 37.3047C42.7734 37.3047 43.3789 37.0703 44.0039 36.6016C44.668 36.1328 45.293 35.5273 45.8789 34.7852C46.5039 34.043 47.0703 33.2617 47.5781 32.4414C48.125 31.582 48.5547 30.7617 48.8672 29.9805ZM73.7109 22.0117C73.7109 22.5586 73.5547 23.125 73.2422 23.7109C72.9688 24.2578 72.6172 24.7852 72.1875 25.293C71.7578 25.8008 71.2695 26.25 70.7227 26.6406C70.2148 26.9922 69.7266 27.207 69.2578 27.2852C69.5703 26.0742 69.668 25.1367 69.5508 24.4727C69.4336 23.8086 69.2383 23.3203 68.9648 23.0078C68.6523 22.6562 68.2617 22.4609 67.793 22.4219C67.0898 22.4219 66.4062 22.832 65.7422 23.6523C65.1172 24.4336 64.5703 25.4102 64.1016 26.582C63.6328 27.7148 63.2617 28.9453 62.9883 30.2734C62.7148 31.5625 62.5781 32.7344 62.5781 33.7891C62.5391 34.5312 62.5586 35.2539 62.6367 35.957C62.6758 36.543 62.7344 37.1484 62.8125 37.7734C62.9297 38.3984 63.0859 38.8867 63.2812 39.2383C63.0469 39.4336 62.6562 39.668 62.1094 39.9414C61.6016 40.2148 61.0547 40.3906 60.4688 40.4688C59.9219 40.5469 59.4141 40.4492 58.9453 40.1758C58.5156 39.9023 58.2812 39.3164 58.2422 38.418C58.1641 37.5586 58.1055 36.6016 58.0664 35.5469C58.0664 34.4531 58.0664 33.3789 58.0664 32.3242C58.1055 31.2305 58.1445 30.1562 58.1836 29.1016C58.2227 28.0469 58.2812 27.0703 58.3594 26.1719C58.4375 24.4531 58.4766 23.125 58.4766 22.1875C58.4766 21.25 58.457 20.3516 58.418 19.4922C58.418 19.3359 58.6719 19.1211 59.1797 18.8477C59.7266 18.5352 60.3125 18.2617 60.9375 18.0273C61.6016 17.793 62.207 17.6562 62.7539 17.6172C63.3008 17.5781 63.5742 17.6953 63.5742 17.9688C63.5742 18.3984 63.5156 19.2578 63.3984 20.5469C63.3203 21.7969 63.2031 23.1055 63.0469 24.4727C63.3203 23.7305 63.6719 22.9297 64.1016 22.0703C64.5703 21.2109 65.0977 20.4102 65.6836 19.668C66.2695 18.9258 66.9336 18.3203 67.6758 17.8516C68.418 17.3438 69.2383 17.0898 70.1367 17.0898C70.8398 17.0898 71.4062 17.3047 71.8359 17.7344C72.3047 18.1641 72.6758 18.6523 72.9492 19.1992C73.2227 19.7461 73.418 20.293 73.5352 20.8398C73.6523 21.3867 73.7109 21.7773 73.7109 22.0117ZM75.9375 19.2578C75.9375 19.0234 76.25 18.7695 76.875 18.4961C77.5 18.2227 78.1836 18.0078 78.9258 17.8516C79.707 17.6562 80.4102 17.5586 81.0352 17.5586C81.6992 17.5195 82.0312 17.6562 82.0312 17.9688C82.0312 18.5547 81.9922 19.3945 81.9141 20.4883C81.8359 21.543 81.7383 22.6758 81.6211 23.8867C81.5039 25.0586 81.3867 26.25 81.2695 27.4609C81.1523 28.6328 81.0742 29.6289 81.0352 30.4492C80.957 31.3086 80.8789 32.2461 80.8008 33.2617C80.7227 34.1211 80.6641 35.0781 80.625 36.1328C80.5859 37.1875 80.5859 38.2617 80.625 39.3555C80.625 39.5508 80.4297 39.7461 80.0391 39.9414C79.6484 40.1367 79.2188 40.2734 78.75 40.3516C78.2812 40.4688 77.832 40.5273 77.4023 40.5273C76.9727 40.5273 76.7383 40.4492 76.6992 40.293C76.6211 40.1367 76.543 39.8633 76.4648 39.4727C76.3867 39.082 76.3086 38.5352 76.2305 37.832C76.1523 37.0898 76.0938 36.1523 76.0547 35.0195C76.0156 33.8477 76.0352 32.4414 76.1133 30.8008C76.2695 27.5586 76.2891 25.0586 76.1719 23.3008C76.0547 21.5039 75.9766 20.1562 75.9375 19.2578ZM80.0391 7.59766C80.8203 7.59766 81.5625 7.83203 82.2656 8.30078C82.9688 8.76953 83.3203 9.39453 83.3203 10.1758C83.3203 10.7617 83.1641 11.3281 82.8516 11.875C82.5781 12.4219 82.2266 12.9102 81.7969 13.3398C81.3672 13.7695 80.8789 14.1211 80.332 14.3945C79.7852 14.6289 79.2773 14.7461 78.8086 14.7461C78.1836 14.7461 77.6758 14.6484 77.2852 14.4531C76.8945 14.2188 76.582 13.9648 76.3477 13.6914C76.1523 13.3789 76.0156 13.0469 75.9375 12.6953C75.8594 12.3438 75.8203 12.0117 75.8203 11.6992C75.8203 11.3086 75.8789 10.8789 75.9961 10.4102C76.1133 9.90234 76.3281 9.45312 76.6406 9.0625C76.9531 8.63281 77.3828 8.28125 77.9297 8.00781C78.4766 7.73438 79.1797 7.59766 80.0391 7.59766ZM78.5742 13.0469C78.8086 13.0469 79.0625 12.9688 79.3359 12.8125C79.6484 12.6172 79.9219 12.4023 80.1562 12.168C80.4297 11.9336 80.6445 11.6797 80.8008 11.4062C80.9961 11.1328 81.0938 10.8984 81.0938 10.7031C81.0938 10.3906 80.9375 10.2344 80.625 10.2344C80.4297 10.2344 80.1758 10.3125 79.8633 10.4688C79.5898 10.625 79.3164 10.8203 79.043 11.0547C78.7695 11.25 78.5352 11.4844 78.3398 11.7578C78.1836 11.9922 78.1055 12.2266 78.1055 12.4609C78.1055 12.8516 78.2617 13.0469 78.5742 13.0469ZM103.008 37.0117C103.086 37.2852 103.203 37.5391 103.359 37.7734C103.477 37.9688 103.633 38.1641 103.828 38.3594C104.062 38.5156 104.336 38.6133 104.648 38.6523C104.375 39.1992 104.102 39.5703 103.828 39.7656C103.672 39.8828 103.535 39.9609 103.418 40C103.066 40.1172 102.539 40.1758 101.836 40.1758C101.133 40.1758 100.449 39.9609 99.7852 39.5312C99.5508 39.3359 99.3359 39.043 99.1406 38.6523C98.9453 38.3398 98.7695 37.9102 98.6133 37.3633C98.4961 36.7773 98.3984 36.0352 98.3203 35.1367C97.7734 36.3086 97.1484 37.2461 96.4453 37.9492C95.7812 38.6133 95.1172 39.1016 94.4531 39.4141C93.7109 39.8438 92.9492 40.0977 92.168 40.1758C91.1914 40.2539 90.2539 40.0977 89.3555 39.707C88.4961 39.2773 87.7539 38.6523 87.1289 37.832C86.543 36.9727 86.0938 35.9375 85.7812 34.7266C85.4688 33.5156 85.3711 32.1484 85.4883 30.625C85.6055 29.0234 85.918 27.5977 86.4258 26.3477C86.9336 25.0977 87.5391 23.9844 88.2422 23.0078C88.9453 22.0312 89.6875 21.2109 90.4688 20.5469C91.25 19.8438 91.9922 19.2773 92.6953 18.8477C93.4375 18.3789 94.0625 18.0469 94.5703 17.8516C95.1172 17.6172 95.4688 17.4805 95.625 17.4414C96.0547 17.3242 96.4258 17.2852 96.7383 17.3242C97.0508 17.3633 97.3242 17.5391 97.5586 17.8516C97.6367 17.9688 97.7344 18.1055 97.8516 18.2617C97.9297 18.418 98.0273 18.6328 98.1445 18.9062C98.2617 19.1406 98.3594 19.4141 98.4375 19.7266C97.5 20.1562 96.6211 20.6445 95.8008 21.1914C94.9805 21.6992 94.2188 22.3242 93.5156 23.0664C92.8516 23.8086 92.2656 24.707 91.7578 25.7617C91.25 26.8164 90.8594 28.1055 90.5859 29.6289C90.1953 31.543 90.293 33.0859 90.8789 34.2578C91.5039 35.4297 92.3438 35.918 93.3984 35.7227C94.0234 35.5273 94.6289 35.1562 95.2148 34.6094C95.7227 34.1406 96.25 33.4375 96.7969 32.5C97.3828 31.5625 97.9297 30.2734 98.4375 28.6328C98.6328 26.2891 98.7891 24.4531 98.9062 23.125C99.0625 21.7578 99.1992 20.7227 99.3164 20.0195C99.4727 19.1992 99.5898 18.6523 99.668 18.3789C99.7852 18.1836 100.02 18.0078 100.371 17.8516C100.723 17.6562 101.113 17.5 101.543 17.3828C101.973 17.2656 102.363 17.207 102.715 17.207C103.066 17.168 103.301 17.168 103.418 17.207C103.496 17.2461 103.535 17.7344 103.535 18.6719C103.535 19.5703 103.496 20.7227 103.418 22.1289C103.379 23.4961 103.32 25 103.242 26.6406C103.164 28.2422 103.086 29.7656 103.008 31.2109C102.969 32.6562 102.93 33.9258 102.891 35.0195C102.891 36.0742 102.93 36.7383 103.008 37.0117ZM114.141 38.418C114.102 38.6523 113.887 38.9062 113.496 39.1797C113.145 39.4141 112.715 39.6289 112.207 39.8242C111.738 40.0195 111.289 40.1367 110.859 40.1758C110.43 40.2539 110.137 40.2148 109.98 40.0586C109.824 39.9023 109.57 39.6094 109.219 39.1797C108.867 38.75 108.652 38.0469 108.574 37.0703C108.496 36.0547 108.457 34.7852 108.457 33.2617C108.457 31.6992 108.438 29.9805 108.398 28.1055V25.7617C108.398 25.0586 108.379 24.2383 108.34 23.3008C108.34 22.3633 108.32 21.3867 108.281 20.3711C108.633 20.1758 108.984 20 109.336 19.8438C109.727 19.6484 110.078 19.4922 110.391 19.375C110.742 19.2188 111.074 19.1016 111.387 19.0234C112.207 18.7891 112.832 18.6523 113.262 18.6133C113.691 18.5742 113.945 18.7109 114.023 19.0234C114.062 19.2578 114.043 19.8242 113.965 20.7227C113.887 21.5039 113.789 22.6953 113.672 24.2969C113.555 25.8594 113.359 28.0469 113.086 30.8594C113.594 29.6094 114.004 28.5352 114.316 27.6367C114.668 26.7383 114.961 26.0156 115.195 25.4688C115.43 24.8047 115.645 24.2773 115.84 23.8867C116.035 23.3789 116.289 22.8125 116.602 22.1875C116.914 21.5625 117.227 20.9766 117.539 20.4297C117.891 19.8828 118.203 19.3945 118.477 18.9648C118.789 18.5352 119.023 18.2812 119.18 18.2031C119.297 18.125 119.648 18.125 120.234 18.2031C120.82 18.2812 121.445 18.4766 122.109 18.7891C122.773 19.0625 123.418 19.4727 124.043 20.0195C124.668 20.5273 125.078 21.1523 125.273 21.8945C125.508 22.7539 125.586 23.8867 125.508 25.293C125.469 26.6992 125.371 28.1445 125.215 29.6289C125.098 31.1133 125 32.5195 124.922 33.8477C124.844 35.1758 124.922 36.1914 125.156 36.8945C125.234 37.2852 125.352 37.6367 125.508 37.9492C125.586 38.2617 125.684 38.5547 125.801 38.8281C125.957 39.0625 126.113 39.2383 126.27 39.3555C125.332 39.7852 124.57 40.0977 123.984 40.293C123.398 40.4883 122.949 40.625 122.637 40.7031C122.246 40.8203 121.973 40.8594 121.816 40.8203C121.465 40.7031 121.152 40.4102 120.879 39.9414C120.645 39.4727 120.43 38.7305 120.234 37.7148C120.156 37.4023 120.117 36.8945 120.117 36.1914C120.156 35.4492 120.215 34.6289 120.293 33.7305C120.371 32.793 120.449 31.8359 120.527 30.8594C120.645 29.8438 120.723 28.9062 120.762 28.0469C120.84 27.1484 120.898 26.3867 120.938 25.7617C120.977 25.0977 120.977 24.6484 120.938 24.4141C120.742 23.7109 120.469 23.2227 120.117 22.9492C119.766 22.6367 119.492 22.5977 119.297 22.832C118.789 23.418 118.242 24.375 117.656 25.7031C117.109 26.9922 116.582 28.418 116.074 29.9805C115.566 31.5039 115.137 33.0273 114.785 34.5508C114.434 36.0742 114.219 37.3633 114.141 38.418ZM145.84 29.9219C145.762 31.4453 145.488 32.8516 145.02 34.1406C144.59 35.4297 143.984 36.5625 143.203 37.5391C142.422 38.4766 141.484 39.2188 140.391 39.7656C139.336 40.3125 138.164 40.6055 136.875 40.6445C135.742 40.6836 134.668 40.4102 133.652 39.8242C132.676 39.2383 131.816 38.418 131.074 37.3633C130.332 36.3086 129.766 35.0586 129.375 33.6133C129.023 32.1289 128.926 30.5273 129.082 28.8086C129.199 26.8164 129.57 25.1172 130.195 23.7109C130.82 22.2656 131.484 21.0742 132.188 20.1367C132.891 19.1992 133.535 18.5156 134.121 18.0859C134.746 17.6172 135.137 17.3438 135.293 17.2656C135.566 17.1484 135.82 17.1289 136.055 17.207C136.289 17.2461 136.543 17.3047 136.816 17.3828C136.895 17.4219 136.973 17.5195 137.051 17.6758C137.207 17.9492 137.305 18.457 137.344 19.1992C137.539 18.7695 137.793 18.418 138.105 18.1445C138.418 17.8711 138.73 17.6758 139.043 17.5586C139.434 17.4023 139.824 17.3047 140.215 17.2656C140.488 17.2266 140.957 17.4414 141.621 17.9102C142.324 18.3789 142.988 19.1211 143.613 20.1367C144.277 21.1523 144.844 22.4805 145.312 24.1211C145.781 25.7227 145.957 27.6562 145.84 29.9219ZM141.855 29.2188C141.895 28.2812 141.855 27.3438 141.738 26.4062C141.66 25.4297 141.504 24.5508 141.27 23.7695C141.074 22.9492 140.82 22.3047 140.508 21.8359C140.195 21.3281 139.883 21.0742 139.57 21.0742C139.219 21.1523 138.828 21.3281 138.398 21.6016C138.047 21.8359 137.656 22.207 137.227 22.7148C136.797 23.2227 136.387 23.9453 135.996 24.8828C135.957 24.7656 135.918 24.5508 135.879 24.2383C135.84 23.9648 135.801 23.6133 135.762 23.1836C135.762 22.7148 135.801 22.0898 135.879 21.3086C135.332 21.9727 134.902 22.7539 134.59 23.6523C134.316 24.5508 134.102 25.4102 133.945 26.2305C133.789 27.207 133.672 28.1836 133.594 29.1602C133.555 30.2148 133.594 31.25 133.711 32.2656C133.867 33.2812 134.102 34.1797 134.414 34.9609C134.766 35.7422 135.176 36.3672 135.645 36.8359C136.113 37.3047 136.68 37.5195 137.344 37.4805C138.008 37.4414 138.594 37.168 139.102 36.6602C139.609 36.1523 140.059 35.5078 140.449 34.7266C140.84 33.9453 141.152 33.0664 141.387 32.0898C141.621 31.1133 141.777 30.1562 141.855 29.2188ZM194.473 44.9805C193.301 44.9414 192.5 44.5703 192.07 43.8672C191.641 43.2031 191.387 42.2656 191.309 41.0547C191.23 39.8438 191.27 38.418 191.426 36.7773C191.582 35.0977 191.66 33.2812 191.66 31.3281C191.699 27.4609 191.836 23.9453 192.07 20.7812C192.344 17.5781 192.422 14.4727 192.305 11.4648C192.305 11.2305 192.305 11.0156 192.305 10.8203C192.305 10.625 192.285 10.4297 192.246 10.2344C192.051 10.8984 191.816 11.6602 191.543 12.5195C191.309 13.3398 191.016 14.2578 190.664 15.2734C189.961 17.4609 189.258 19.707 188.555 22.0117C187.891 24.3164 187.227 26.5625 186.562 28.75C185.938 30.8984 185.332 32.9102 184.746 34.7852C184.199 36.6211 183.711 38.1641 183.281 39.4141C182.852 40.6641 182.422 41.582 181.992 42.168C181.602 42.793 181.191 43.2227 180.762 43.457C180.371 43.6914 179.961 43.7891 179.531 43.75C179.141 43.7109 178.75 43.6719 178.359 43.6328C178.203 42.3047 177.91 40.7422 177.48 38.9453C177.051 37.1484 176.602 35.4297 176.133 33.7891C175.586 31.875 174.98 29.9219 174.316 27.9297C173.418 24.4922 172.48 21.3477 171.504 18.4961C170.527 15.6445 169.766 13.3008 169.219 11.4648C168.984 13.457 168.809 15.7422 168.691 18.3203C168.574 20.8984 168.496 23.4766 168.457 26.0547C168.418 28.6328 168.438 31.0742 168.516 33.3789C168.594 35.6445 168.711 37.4805 168.867 38.8867C168.906 39.4727 168.984 40.0586 169.102 40.6445C169.18 41.1523 169.277 41.6602 169.395 42.168C169.551 42.7148 169.727 43.2031 169.922 43.6328C169.727 43.7891 169.492 43.9258 169.219 44.043C168.945 44.1602 168.652 44.2578 168.34 44.3359C167.988 44.4531 167.617 44.5508 167.227 44.6289C165.703 44.9414 164.59 44.9023 163.887 44.5117C163.223 44.1211 162.812 43.3398 162.656 42.168C162.578 41.582 162.52 40.4883 162.48 38.8867C162.441 37.2852 162.422 35.4492 162.422 33.3789C162.461 31.2695 162.52 29.0625 162.598 26.7578C162.676 24.4531 162.793 22.3047 162.949 20.3125C163.105 18.7109 163.262 16.9727 163.418 15.0977C163.574 13.457 163.73 11.5625 163.887 9.41406C164.043 7.26563 164.219 4.94141 164.414 2.44141C164.531 2.20703 164.727 2.01172 165 1.85547C165.273 1.66016 165.566 1.50391 165.879 1.38672C166.23 1.23047 166.621 1.11328 167.051 1.03516C167.715 0.917969 168.301 0.820313 168.809 0.742188C169.238 0.664062 169.629 0.605469 169.98 0.566406C170.371 0.527344 170.527 0.527344 170.449 0.566406C170.957 1.62109 171.348 2.5 171.621 3.20312C171.895 3.86719 172.168 4.66797 172.441 5.60547C172.754 6.54297 173.125 7.77344 173.555 9.29688C174.023 10.8203 174.688 12.9492 175.547 15.6836C176.719 19.4727 177.715 22.7734 178.535 25.5859C179.395 28.3984 180.039 30.5469 180.469 32.0312C180.742 31.5234 181.016 30.9766 181.289 30.3906C181.562 29.7656 181.836 29.0234 182.109 28.1641C182.422 27.3047 182.734 26.3086 183.047 25.1758C183.398 24.0039 183.789 22.6172 184.219 21.0156C184.766 19.2578 185.332 17.3633 185.918 15.332C186.387 13.6133 186.895 11.6602 187.441 9.47266C188.027 7.24609 188.574 4.94141 189.082 2.55859C190.332 2.05078 191.348 1.67969 192.129 1.44531C192.91 1.17188 193.516 0.957031 193.945 0.800781C194.453 0.644531 194.824 0.546875 195.059 0.507812C195.293 0.546875 195.527 0.664062 195.762 0.859375C195.957 1.05469 196.191 1.32812 196.465 1.67969C196.738 2.03125 197.031 2.55859 197.344 3.26172C197.344 3.80859 197.344 4.6875 197.344 5.89844C197.344 7.10937 197.344 8.51562 197.344 10.1172C197.344 11.6797 197.324 13.3789 197.285 15.2148C197.246 17.0508 197.207 18.9062 197.168 20.7812C197.168 22.6172 197.148 24.4141 197.109 26.1719C197.109 27.9297 197.09 29.4922 197.051 30.8594C196.973 32.9297 196.953 34.6875 196.992 36.1328C197.07 37.5781 197.188 38.7891 197.344 39.7656C197.539 40.7031 197.773 41.4648 198.047 42.0508C198.359 42.6367 198.73 43.1055 199.16 43.457C199.043 43.5352 198.809 43.6523 198.457 43.8086C198.145 44.0039 197.754 44.1797 197.285 44.3359C196.816 44.5312 196.328 44.6875 195.82 44.8047C195.312 44.9219 194.863 44.9805 194.473 44.9805ZM219.727 37.0117C219.805 37.2852 219.922 37.5391 220.078 37.7734C220.195 37.9688 220.352 38.1641 220.547 38.3594C220.781 38.5156 221.055 38.6133 221.367 38.6523C221.094 39.1992 220.82 39.5703 220.547 39.7656C220.391 39.8828 220.254 39.9609 220.137 40C219.785 40.1172 219.258 40.1758 218.555 40.1758C217.852 40.1758 217.168 39.9609 216.504 39.5312C216.27 39.3359 216.055 39.043 215.859 38.6523C215.664 38.3398 215.488 37.9102 215.332 37.3633C215.215 36.7773 215.117 36.0352 215.039 35.1367C214.492 36.3086 213.867 37.2461 213.164 37.9492C212.5 38.6133 211.836 39.1016 211.172 39.4141C210.43 39.8438 209.668 40.0977 208.887 40.1758C207.91 40.2539 206.973 40.0977 206.074 39.707C205.215 39.2773 204.473 38.6523 203.848 37.832C203.262 36.9727 202.812 35.9375 202.5 34.7266C202.188 33.5156 202.09 32.1484 202.207 30.625C202.324 29.0234 202.637 27.5977 203.145 26.3477C203.652 25.0977 204.258 23.9844 204.961 23.0078C205.664 22.0312 206.406 21.2109 207.188 20.5469C207.969 19.8438 208.711 19.2773 209.414 18.8477C210.156 18.3789 210.781 18.0469 211.289 17.8516C211.836 17.6172 212.188 17.4805 212.344 17.4414C212.773 17.3242 213.145 17.2852 213.457 17.3242C213.77 17.3633 214.043 17.5391 214.277 17.8516C214.355 17.9688 214.453 18.1055 214.57 18.2617C214.648 18.418 214.746 18.6328 214.863 18.9062C214.98 19.1406 215.078 19.4141 215.156 19.7266C214.219 20.1562 213.34 20.6445 212.52 21.1914C211.699 21.6992 210.938 22.3242 210.234 23.0664C209.57 23.8086 208.984 24.707 208.477 25.7617C207.969 26.8164 207.578 28.1055 207.305 29.6289C206.914 31.543 207.012 33.0859 207.598 34.2578C208.223 35.4297 209.062 35.918 210.117 35.7227C210.742 35.5273 211.348 35.1562 211.934 34.6094C212.441 34.1406 212.969 33.4375 213.516 32.5C214.102 31.5625 214.648 30.2734 215.156 28.6328C215.352 26.2891 215.508 24.4531 215.625 23.125C215.781 21.7578 215.918 20.7227 216.035 20.0195C216.191 19.1992 216.309 18.6523 216.387 18.3789C216.504 18.1836 216.738 18.0078 217.09 17.8516C217.441 17.6562 217.832 17.5 218.262 17.3828C218.691 17.2656 219.082 17.207 219.434 17.207C219.785 17.168 220.02 17.168 220.137 17.207C220.215 17.2461 220.254 17.7344 220.254 18.6719C220.254 19.5703 220.215 20.7227 220.137 22.1289C220.098 23.4961 220.039 25 219.961 26.6406C219.883 28.2422 219.805 29.7656 219.727 31.2109C219.688 32.6562 219.648 33.9258 219.609 35.0195C219.609 36.0742 219.648 36.7383 219.727 37.0117ZM240.645 22.0117C240.645 22.5586 240.488 23.125 240.176 23.7109C239.902 24.2578 239.551 24.7852 239.121 25.293C238.691 25.8008 238.203 26.25 237.656 26.6406C237.148 26.9922 236.66 27.207 236.191 27.2852C236.504 26.0742 236.602 25.1367 236.484 24.4727C236.367 23.8086 236.172 23.3203 235.898 23.0078C235.586 22.6562 235.195 22.4609 234.727 22.4219C234.023 22.4219 233.34 22.832 232.676 23.6523C232.051 24.4336 231.504 25.4102 231.035 26.582C230.566 27.7148 230.195 28.9453 229.922 30.2734C229.648 31.5625 229.512 32.7344 229.512 33.7891C229.473 34.5312 229.492 35.2539 229.57 35.957C229.609 36.543 229.668 37.1484 229.746 37.7734C229.863 38.3984 230.02 38.8867 230.215 39.2383C229.98 39.4336 229.59 39.668 229.043 39.9414C228.535 40.2148 227.988 40.3906 227.402 40.4688C226.855 40.5469 226.348 40.4492 225.879 40.1758C225.449 39.9023 225.215 39.3164 225.176 38.418C225.098 37.5586 225.039 36.6016 225 35.5469C225 34.4531 225 33.3789 225 32.3242C225.039 31.2305 225.078 30.1562 225.117 29.1016C225.156 28.0469 225.215 27.0703 225.293 26.1719C225.371 24.4531 225.41 23.125 225.41 22.1875C225.41 21.25 225.391 20.3516 225.352 19.4922C225.352 19.3359 225.605 19.1211 226.113 18.8477C226.66 18.5352 227.246 18.2617 227.871 18.0273C228.535 17.793 229.141 17.6562 229.688 17.6172C230.234 17.5781 230.508 17.6953 230.508 17.9688C230.508 18.3984 230.449 19.2578 230.332 20.5469C230.254 21.7969 230.137 23.1055 229.98 24.4727C230.254 23.7305 230.605 22.9297 231.035 22.0703C231.504 21.2109 232.031 20.4102 232.617 19.668C233.203 18.9258 233.867 18.3203 234.609 17.8516C235.352 17.3438 236.172 17.0898 237.07 17.0898C237.773 17.0898 238.34 17.3047 238.77 17.7344C239.238 18.1641 239.609 18.6523 239.883 19.1992C240.156 19.7461 240.352 20.293 240.469 20.8398C240.586 21.3867 240.645 21.7773 240.645 22.0117ZM256.172 36.8359C255.508 37.9688 254.609 38.9453 253.477 39.7656C252.383 40.5859 250.977 40.9961 249.258 40.9961C248.203 40.9961 247.207 40.7422 246.27 40.2344C245.371 39.7266 244.59 39.0234 243.926 38.125C243.262 37.2266 242.734 36.1523 242.344 34.9023C241.992 33.6523 241.816 32.2852 241.816 30.8008C241.816 28.6133 242.109 26.6602 242.695 24.9414C243.32 23.2227 244.121 21.7773 245.098 20.6055C246.113 19.4336 247.227 18.5352 248.438 17.9102C249.688 17.2852 250.938 16.9727 252.188 16.9727C252.812 16.9727 253.379 17.0898 253.887 17.3242C254.395 17.5586 254.844 17.8711 255.234 18.2617C255.625 18.6133 255.957 19.0039 256.23 19.4336C256.543 19.8633 256.816 20.2539 257.051 20.6055C257.051 19.707 257.031 18.9062 256.992 18.2031C256.953 17.4609 256.875 16.875 256.758 16.4453C257.305 16.6016 257.773 16.7578 258.164 16.9141C258.594 17.0703 258.945 17.2266 259.219 17.3828C259.531 17.5391 259.805 17.7148 260.039 17.9102C260.586 18.418 260.918 18.9453 261.035 19.4922C261.152 20.0391 261.133 20.8203 260.977 21.8359C260.898 22.3438 260.801 23.2812 260.684 24.6484C260.566 26.0156 260.449 27.5195 260.332 29.1602C260.215 30.8008 260.098 32.4609 259.98 34.1406C259.902 35.8203 259.844 37.2266 259.805 38.3594C259.727 39.7656 259.707 41.2109 259.746 42.6953C259.785 44.1797 259.844 45.6055 259.922 46.9727C260.039 48.3398 260.176 49.6289 260.332 50.8398C260.527 52.0898 260.742 53.1836 260.977 54.1211C260.742 54.4336 260.43 54.6484 260.039 54.7656C259.688 54.9219 259.336 55.0195 258.984 55.0586C258.555 55.1367 258.145 55.1367 257.754 55.0586C256.621 54.9414 255.918 54.5312 255.645 53.8281C255.371 53.1641 255.234 52.2656 255.234 51.1328C255.234 50.7422 255.254 50.0586 255.293 49.082C255.371 48.1055 255.449 46.9531 255.527 45.625C255.645 44.3359 255.742 42.9297 255.82 41.4062C255.938 39.8828 256.055 38.3594 256.172 36.8359ZM250.781 37.832C251.25 37.832 251.816 37.6172 252.48 37.1875C253.145 36.7188 253.77 36.0742 254.355 35.2539C254.941 34.4336 255.449 33.457 255.879 32.3242C256.309 31.1523 256.523 29.8633 256.523 28.457C256.523 26.9336 256.367 25.625 256.055 24.5312C255.742 23.3984 255.352 22.4805 254.883 21.7773C254.414 21.0742 253.926 20.5664 253.418 20.2539C252.91 19.9023 252.461 19.7266 252.07 19.7266C251.172 19.7266 250.391 20 249.727 20.5469C249.102 21.0938 248.574 21.8164 248.145 22.7148C247.754 23.5742 247.441 24.5703 247.207 25.7031C247.012 26.8359 246.895 27.9883 246.855 29.1602C246.855 30.2539 246.934 31.3281 247.09 32.3828C247.285 33.3984 247.559 34.3164 247.91 35.1367C248.262 35.957 248.672 36.6211 249.141 37.1289C249.648 37.5977 250.195 37.832 250.781 37.832ZM278.086 18.2031C278.086 17.7734 278.34 17.4609 278.848 17.2656C279.395 17.0312 279.961 16.9141 280.547 16.9141C281.172 16.9141 281.738 17.0312 282.246 17.2656C282.754 17.4609 282.988 17.7344 282.949 18.0859C282.91 18.3594 282.871 18.9062 282.832 19.7266C282.793 20.5078 282.734 21.4453 282.656 22.5391C282.617 23.6328 282.559 24.8047 282.48 26.0547C282.402 27.3047 282.324 28.5352 282.246 29.7461C282.207 30.918 282.168 32.0117 282.129 33.0273C282.129 34.043 282.129 34.8242 282.129 35.3711C282.129 36.0742 282.168 36.7188 282.246 37.3047C282.324 37.8125 282.422 38.3203 282.539 38.8281C282.656 39.2969 282.832 39.6289 283.066 39.8242C282.754 39.9414 282.422 40.0195 282.07 40.0586C281.758 40.0977 281.465 40.1367 281.191 40.1758C280.879 40.2148 280.566 40.2344 280.254 40.2344C279.59 40.2344 279.023 40.0977 278.555 39.8242C278.125 39.5508 277.91 38.9844 277.91 38.125C277.91 37.6953 277.93 37.0703 277.969 36.25C278.047 35.4297 278.125 34.5508 278.203 33.6133C277.93 34.4336 277.598 35.2734 277.207 36.1328C276.816 36.9922 276.328 37.7539 275.742 38.418C275.195 39.082 274.57 39.6289 273.867 40.0586C273.164 40.4883 272.363 40.7031 271.465 40.7031C270.449 40.7031 269.512 40.4883 268.652 40.0586C267.832 39.6289 267.109 39.0234 266.484 38.2422C265.859 37.4219 265.391 36.4258 265.078 35.2539C264.766 34.082 264.648 32.7344 264.727 31.2109C264.727 30.0391 264.746 28.7891 264.785 27.4609C264.824 26.3281 264.883 25.0195 264.961 23.5352C265.039 22.0508 265.176 20.5078 265.371 18.9062C265.41 18.75 265.684 18.5547 266.191 18.3203C266.699 18.0859 267.266 17.8906 267.891 17.7344C268.516 17.5781 269.121 17.5195 269.707 17.5586C270.293 17.5977 270.723 17.832 270.996 18.2617C270.801 18.9648 270.605 19.8047 270.41 20.7812C270.215 21.7188 270.039 22.6953 269.883 23.7109C269.727 24.7266 269.609 25.7227 269.531 26.6992C269.453 27.6758 269.414 28.5742 269.414 29.3945C269.414 30.1367 269.453 30.957 269.531 31.8555C269.609 32.7148 269.746 33.5352 269.941 34.3164C270.176 35.0586 270.488 35.6836 270.879 36.1914C271.309 36.6992 271.855 36.9531 272.52 36.9531C273.262 36.9531 273.906 36.6406 274.453 36.0156C275.039 35.3516 275.527 34.5117 275.918 33.4961C276.309 32.4805 276.641 31.3281 276.914 30.0391C277.188 28.7109 277.402 27.4023 277.559 26.1133C277.754 24.8242 277.871 23.5938 277.91 22.4219C277.988 21.2109 278.047 20.1953 278.086 19.375V18.2031ZM294.902 40.6445C292.168 40.6445 290.059 39.7266 288.574 37.8906C287.09 36.0547 286.348 33.6523 286.348 30.6836C286.348 28.6133 286.641 26.6797 287.227 24.8828C287.852 23.0469 288.672 21.4648 289.688 20.1367C290.703 18.8086 291.875 17.7734 293.203 17.0312C294.57 16.25 295.996 15.8594 297.48 15.8594C298.926 15.8594 300.156 16.3867 301.172 17.4414C302.188 18.457 302.695 19.9219 302.695 21.8359C302.695 23.0859 302.422 24.3359 301.875 25.5859C301.328 26.7969 300.605 27.8906 299.707 28.8672C298.848 29.8047 297.891 30.5664 296.836 31.1523C295.781 31.7383 294.766 32.0312 293.789 32.0312C293.164 32.0312 292.637 31.9531 292.207 31.7969C291.777 31.6406 291.387 31.4062 291.035 31.0938C291.152 33.3203 291.641 34.8828 292.5 35.7812C293.359 36.6406 294.473 37.0703 295.84 37.0703C296.777 37.0703 297.598 36.875 298.301 36.4844C299.043 36.0938 299.668 35.6445 300.176 35.1367C300.684 34.6289 301.094 34.1211 301.406 33.6133C301.719 33.0664 301.934 32.6562 302.051 32.3828C302.168 32.1484 302.363 32.0312 302.637 32.0312C302.949 32.0312 303.105 32.2656 303.105 32.7344C303.105 33.1641 302.949 33.8281 302.637 34.7266C302.363 35.5859 301.895 36.4648 301.23 37.3633C300.566 38.2227 299.707 38.9844 298.652 39.6484C297.637 40.3125 296.387 40.6445 294.902 40.6445ZM297.598 18.3789C297.363 18.3789 296.914 18.6328 296.25 19.1406C295.625 19.6094 294.941 20.3125 294.199 21.25C293.496 22.1875 292.832 23.3203 292.207 24.6484C291.621 25.9375 291.25 27.4023 291.094 29.043C293.438 28.4961 295.293 27.6367 296.66 26.4648C298.027 25.293 298.711 23.5742 298.711 21.3086C298.711 20.1758 298.574 19.4141 298.301 19.0234C298.027 18.5938 297.793 18.3789 297.598 18.3789ZM315.762 28.8672C316.621 29.1797 317.441 29.4727 318.223 29.7461C319.004 30.0195 319.688 30.3516 320.273 30.7422C320.859 31.1328 321.328 31.6016 321.68 32.1484C322.031 32.6562 322.207 33.3008 322.207 34.082C322.207 35.0195 321.992 35.8984 321.562 36.7188C321.172 37.5391 320.586 38.2617 319.805 38.8867C319.023 39.5117 318.066 40 316.934 40.3516C315.84 40.7422 314.609 40.9375 313.242 40.9375C311.719 40.9375 310.488 40.7812 309.551 40.4688C308.613 40.1953 307.891 39.8633 307.383 39.4727C306.875 39.082 306.543 38.6914 306.387 38.3008C306.23 37.9102 306.152 37.5977 306.152 37.3633C306.152 36.8945 306.25 36.3867 306.445 35.8398C306.641 35.2539 307.012 34.6289 307.559 33.9648C307.793 33.6914 308.047 33.4375 308.32 33.2031C308.867 32.7344 309.414 32.4414 309.961 32.3242C309.883 33.2227 309.98 33.9648 310.254 34.5508C310.566 35.0977 310.957 35.5273 311.426 35.8398C311.934 36.1523 312.48 36.3672 313.066 36.4844C313.691 36.6016 314.277 36.6602 314.824 36.6602C315.371 36.6602 315.918 36.582 316.465 36.4258C317.051 36.2695 317.578 36.0742 318.047 35.8398C318.516 35.5664 318.887 35.2734 319.16 34.9609C319.473 34.6094 319.629 34.2383 319.629 33.8477C319.629 33.418 319.453 33.0664 319.102 32.793C318.75 32.5195 318.301 32.3047 317.754 32.1484C317.246 31.9531 316.68 31.8164 316.055 31.7383C315.469 31.6211 314.902 31.5039 314.355 31.3867C313.809 31.2695 313.066 31.1133 312.129 30.918C311.23 30.6836 310.332 30.332 309.434 29.8633C308.574 29.3945 307.812 28.7695 307.148 27.9883C306.523 27.207 306.211 26.1719 306.211 24.8828C306.211 23.3984 306.582 22.1094 307.324 21.0156C308.105 19.8828 309.043 18.9453 310.137 18.2031C311.27 17.4219 312.461 16.8359 313.711 16.4453C314.961 16.0547 316.074 15.8594 317.051 15.8594C317.559 15.8594 318.105 15.9375 318.691 16.0938C319.277 16.2109 319.824 16.4453 320.332 16.7969C320.84 17.1094 321.25 17.5391 321.562 18.0859C321.914 18.6328 322.09 19.3359 322.09 20.1953C322.09 21.0547 322.012 21.7578 321.855 22.3047C321.738 22.8125 321.543 23.2227 321.27 23.5352C321.035 23.8086 320.742 23.9844 320.391 24.0625C320.039 24.1406 319.629 24.1797 319.16 24.1797C318.848 24.1797 318.555 24.1406 318.281 24.0625C318.047 23.9844 317.793 23.9062 317.52 23.8281C317.246 23.75 316.992 23.6133 316.758 23.418C317.148 22.9492 317.441 22.5 317.637 22.0703C317.871 21.6406 317.988 21.1133 317.988 20.4883C317.988 19.9414 317.832 19.4531 317.52 19.0234C317.246 18.5938 316.777 18.3789 316.113 18.3789C315.41 18.3789 314.727 18.5156 314.062 18.7891C313.438 19.0625 312.871 19.4336 312.363 19.9023C311.895 20.3711 311.504 20.918 311.191 21.543C310.918 22.1289 310.781 22.7734 310.781 23.4766C310.781 24.5312 311.172 25.5273 311.953 26.4648C312.773 27.4023 314.043 28.2031 315.762 28.8672Z" fill="#F5C453"/>
</svg>
