<svg width="41" height="32" viewBox="0 0 41 32" fill="none" xmlns="http://www.w3.org/2000/svg">
<path d="M39.7523 10.5667C40.061 10.3083 40.52 10.55 40.52 10.9583V28C40.52 30.2083 38.8185 32 36.7212 32H3.79875C1.70152 32 0 30.2083 0 28V10.9667C0 10.55 0.451102 10.3167 0.767664 10.575C2.54041 12.025 4.89089 13.8667 12.9632 20.0417C14.6331 21.325 17.4505 24.025 20.26 24.0083C23.0853 24.0333 25.9581 21.275 27.5647 20.0417C35.637 13.8667 37.9796 12.0167 39.7523 10.5667ZM20.26 21.3333C22.0961 21.3667 24.7394 18.9 26.0689 17.8833C36.5709 9.85833 37.3702 9.15833 39.7919 7.15833C40.2509 6.78333 40.52 6.2 40.52 5.58333V4C40.52 1.79167 38.8185 0 36.7212 0H3.79875C1.70152 0 0 1.79167 0 4V5.58333C0 6.2 0.269078 6.775 0.728094 7.15833C3.1498 9.15 3.94912 9.85833 14.4511 17.8833C15.7806 18.9 18.4239 21.3667 20.26 21.3333Z" fill="#929292"/>
</svg>
