<svg width="119" height="190" viewBox="0 0 119 190" fill="none" xmlns="http://www.w3.org/2000/svg">
<path d="M101.15 0H17.85C7.99531 0 0 7.97852 0 17.8125V172.188C0 182.021 7.99531 190 17.85 190H101.15C111.005 190 119 182.021 119 172.188V17.8125C119 7.97852 111.005 0 101.15 0ZM59.5 178.125C52.9178 178.125 47.6 172.818 47.6 166.25C47.6 159.682 52.9178 154.375 59.5 154.375C66.0822 154.375 71.4 159.682 71.4 166.25C71.4 172.818 66.0822 178.125 59.5 178.125ZM101.15 138.047C101.15 140.496 99.1419 142.5 96.6875 142.5H22.3125C19.8581 142.5 17.85 140.496 17.85 138.047V22.2656C17.85 19.8164 19.8581 17.8125 22.3125 17.8125H96.6875C99.1419 17.8125 101.15 19.8164 101.15 22.2656V138.047Z" fill="#F5C453"/>
</svg>
