<svg width="32" height="32" viewBox="0 0 32 32" fill="none" xmlns="http://www.w3.org/2000/svg">
<path d="M30.3425 19.1328C30.5497 18.1326 30.6783 17.0681 30.6783 16.0036C30.6783 7.89462 24.1125 1.33601 16.0107 1.33601C14.9462 1.33601 13.8888 1.45747 12.8814 1.6718C11.524 0.621567 9.83791 0 8.00179 0C3.58651 0 0 3.58651 0 8.00179C0 9.83791 0.621567 11.524 1.66466 12.8743C1.45747 13.8745 1.32887 14.939 1.32887 16.0036C1.32887 24.1125 7.89462 30.6711 15.9964 30.6711C17.061 30.6711 18.1183 30.5497 19.1257 30.3353C20.4831 31.3784 22.1692 32 23.9982 32C28.4135 32 32 28.4135 32 23.9982C32.0071 22.1692 31.3856 20.4831 30.3425 19.1328ZM16.4394 25.67C11.7526 25.67 7.83032 23.5838 7.83032 21.0261C7.83032 19.883 8.47332 18.8399 9.93793 18.8399C12.167 18.8399 12.3742 22.0478 16.2322 22.0478C18.0683 22.0478 19.2543 21.2333 19.2543 20.1688C19.2543 18.8328 18.1112 18.6256 16.2536 18.1683C11.7883 17.0681 7.83746 16.5966 7.83746 11.9384C7.83746 7.70886 12.0241 6.14423 15.6321 6.14423C19.5687 6.14423 23.5481 7.70886 23.5481 10.1023C23.5481 11.3097 22.7336 12.3742 21.3833 12.3742C19.3615 12.3742 19.2972 9.9808 16.025 9.9808C14.1889 9.9808 13.0243 10.4809 13.0243 11.5883C13.0243 13.0029 14.5104 13.1458 17.9612 13.946C20.919 14.6104 24.4412 15.8607 24.4412 19.4901C24.4412 23.7124 20.3617 25.67 16.4394 25.67Z" fill="#929292"/>
</svg>
