<svg width="275" height="190" viewBox="0 0 275 190" fill="none" xmlns="http://www.w3.org/2000/svg">
<path d="M110.851 101.075L27.3447 184.551C23.3172 188.577 16.7877 188.577 12.7606 184.551L3.02049 174.815C-1.00009 170.796 -1.00782 164.282 3.00331 160.253L69.1846 93.785L3.00374 27.3172C-1.00739 23.2886 -0.99966 16.7748 3.02092 12.7557L12.7606 3.0195C16.7881 -1.0065 23.3176 -1.0065 27.3447 3.0195L110.851 86.4959C114.879 90.5214 114.879 97.0486 110.851 101.075ZM275 179.691V165.946C275 160.253 270.383 155.638 264.688 155.638H134.063C128.367 155.638 123.75 160.253 123.75 165.946V179.691C123.75 185.385 128.367 190 134.063 190H264.688C270.383 190 275 185.385 275 179.691Z" fill="#F5C453"/>
</svg>
