<svg id="Layer_1" data-name="Layer 1" xmlns="http://www.w3.org/2000/svg" xmlns:xlink="http://www.w3.org/1999/xlink" viewBox="0 0 596.1 212.69"><defs><style>.cls-1{fill:url(#linear-gradient);}.cls-2{fill:url(#linear-gradient-2);}.cls-3{fill:url(#linear-gradient-3);}.cls-4{fill:url(#linear-gradient-4);}.cls-5{fill:url(#linear-gradient-5);}.cls-6{fill:url(#linear-gradient-6);}.cls-7{fill:#fff;}.cls-8{fill:url(#linear-gradient-7);}.cls-9{fill:url(#linear-gradient-8);}.cls-10{fill:url(#linear-gradient-9);}.cls-11{fill:url(#linear-gradient-10);}.cls-12{fill:url(#linear-gradient-11);}.cls-13{fill:url(#linear-gradient-12);}.cls-14{fill:url(#linear-gradient-13);}</style><linearGradient id="linear-gradient" x1="-8.4" y1="127.46" x2="206.25" y2="245.34" gradientUnits="userSpaceOnUse"><stop offset="0" stop-color="#37dcad"/><stop offset="1" stop-color="#22c2e7"/></linearGradient><linearGradient id="linear-gradient-2" x1="-7.38" y1="128.01" x2="202.62" y2="243.35" xlink:href="#linear-gradient"/><linearGradient id="linear-gradient-3" x1="-1.18" y1="108.7" x2="215.33" y2="227.6" xlink:href="#linear-gradient"/><linearGradient id="linear-gradient-4" x1="2.2" y1="110.56" x2="212.2" y2="225.89" xlink:href="#linear-gradient"/><linearGradient id="linear-gradient-5" x1="21.84" y1="64.02" x2="237.68" y2="182.57" xlink:href="#linear-gradient"/><linearGradient id="linear-gradient-6" x1="26.45" y1="66.4" x2="236.45" y2="181.73" xlink:href="#linear-gradient"/><linearGradient id="linear-gradient-7" x1="309.95" y1="19.97" x2="540.45" y2="115.72" xlink:href="#linear-gradient"/><linearGradient id="linear-gradient-8" x1="306.43" y1="28.46" x2="536.93" y2="124.21" xlink:href="#linear-gradient"/><linearGradient id="linear-gradient-9" x1="303.79" y1="34.81" x2="534.29" y2="130.56" xlink:href="#linear-gradient"/><linearGradient id="linear-gradient-10" x1="301.15" y1="41.16" x2="531.65" y2="136.91" xlink:href="#linear-gradient"/><linearGradient id="linear-gradient-11" x1="298.51" y1="47.52" x2="529.01" y2="143.27" xlink:href="#linear-gradient"/><linearGradient id="linear-gradient-12" x1="295.87" y1="53.87" x2="526.37" y2="149.62" xlink:href="#linear-gradient"/><linearGradient id="linear-gradient-13" x1="312.21" y1="14.53" x2="542.71" y2="110.28" xlink:href="#linear-gradient"/></defs><title>Artboard 1 copy 2</title><path class="cls-1" d="M35.67,211.62c-7.62,0-14.31-1.38-19.86-4.11A46.92,46.92,0,0,1,1.24,196.37l-1-1.13,3.1-4.87,0,0a4.75,4.75,0,0,1,3.77-1.93,4.86,4.86,0,0,1,3.11,1.42L13,192.16c1,.88,2.23,1.85,3.65,2.89a28.38,28.38,0,0,0,4.79,2.79,34.85,34.85,0,0,0,6.33,2.2,34.11,34.11,0,0,0,8.1.88,30.86,30.86,0,0,0,11.1-1.87A24,24,0,0,0,55,194a21.21,21.21,0,0,0,5-7.53A25.57,25.57,0,0,0,61.8,177a16.15,16.15,0,0,0-2.1-8.67A18.8,18.8,0,0,0,54,162.57a39.4,39.4,0,0,0-8.5-4.08c-3.33-1.15-6.77-2.29-10.23-3.37s-7-2.37-10.44-3.76a37.46,37.46,0,0,1-9.44-5.54,26.14,26.14,0,0,1-6.87-8.61,28.52,28.52,0,0,1-2.62-12.83,30.37,30.37,0,0,1,2.28-11.55A29,29,0,0,1,14.82,103a32.69,32.69,0,0,1,10.78-6.8,39,39,0,0,1,14.49-2.55,43.9,43.9,0,0,1,16.3,2.9,39.57,39.57,0,0,1,13.24,8.88l1,1-2.57,4.94a4.21,4.21,0,0,1-3.82,2.4,6.2,6.2,0,0,1-4-2,33.87,33.87,0,0,0-4.11-3,32.62,32.62,0,0,0-6.49-3.07,28.3,28.3,0,0,0-9.52-1.38,28.34,28.34,0,0,0-10,1.61,20.34,20.34,0,0,0-7,4.29,18.23,18.23,0,0,0-4.27,6.25A19.74,19.74,0,0,0,17.43,124a15,15,0,0,0,2.08,8.29A19.63,19.63,0,0,0,25.27,138a39.16,39.16,0,0,0,8.51,4.16c3.36,1.19,6.81,2.36,10.24,3.49s7.06,2.47,10.43,3.87A39.7,39.7,0,0,1,63.87,155a26.12,26.12,0,0,1,6.86,8.4,26.57,26.57,0,0,1,2.63,12.38,38.14,38.14,0,0,1-2.54,13.92,32.81,32.81,0,0,1-7.42,11.45,35,35,0,0,1-11.86,7.65A42.89,42.89,0,0,1,35.67,211.62Z"/><path class="cls-2" d="M63.24,155.82a38.34,38.34,0,0,0-9.18-5.38c-3.34-1.39-6.82-2.69-10.35-3.85s-6.91-2.31-10.26-3.5a40.49,40.49,0,0,1-8.73-4.26,20.88,20.88,0,0,1-6-6A16,16,0,0,1,16.43,124,20.73,20.73,0,0,1,18,116.09a19.32,19.32,0,0,1,4.49-6.59A21.42,21.42,0,0,1,29.84,105a29.37,29.37,0,0,1,10.33-1.67A29.25,29.25,0,0,1,50,104.76a33.8,33.8,0,0,1,6.69,3.17A33.18,33.18,0,0,1,61,111.06a5.34,5.34,0,0,0,3.31,1.71,3.18,3.18,0,0,0,2.93-1.87l2.24-4.28-.52-.52A38.45,38.45,0,0,0,56,97.45a43,43,0,0,0-15.93-2.83A38.1,38.1,0,0,0,26,97.1a31.66,31.66,0,0,0-10.45,6.59,27.9,27.9,0,0,0-6.45,9.52,29.39,29.39,0,0,0-2.21,11.17,27.51,27.51,0,0,0,2.51,12.38A25.12,25.12,0,0,0,16,145.05a36.85,36.85,0,0,0,9.19,5.39c3.37,1.37,6.85,2.63,10.36,3.73s6.92,2.22,10.26,3.37a41,41,0,0,1,8.72,4.19,19.79,19.79,0,0,1,6,6.08A17.13,17.13,0,0,1,62.8,177,26.5,26.5,0,0,1,61,186.84a22.35,22.35,0,0,1-5.24,7.88A24.79,24.79,0,0,1,47.29,200a31.76,31.76,0,0,1-11.46,1.94,35.09,35.09,0,0,1-8.34-.91A35.54,35.54,0,0,1,21,198.75a30,30,0,0,1-5-2.9c-1.44-1-2.69-2-3.72-2.94l-2.68-2.33a3.94,3.94,0,0,0-2.46-1.18,3.74,3.74,0,0,0-3,1.55L1.5,195.14l.49.57a46.07,46.07,0,0,0,14.26,10.91c5.41,2.65,12,4,19.42,4a41.73,41.73,0,0,0,15.5-2.71,33.71,33.71,0,0,0,11.52-7.43,31.77,31.77,0,0,0,7.2-11.1,37.26,37.26,0,0,0,2.47-13.56,25.67,25.67,0,0,0-2.51-11.92A25.13,25.13,0,0,0,63.24,155.82Z"/><path class="cls-3" d="M102.66,211.62a28.2,28.2,0,0,1-8.39-1.27,21.84,21.84,0,0,1-7.42-4,19.7,19.7,0,0,1-5.27-7,23.88,23.88,0,0,1-2-10,18.26,18.26,0,0,1,3.17-10.32A25.34,25.34,0,0,1,92.44,171a61.52,61.52,0,0,1,16.09-5.22,132.3,132.3,0,0,1,21.2-2.19v-6.25c0-6.75-1.43-12-4.25-15.49s-6.86-5.12-12.34-5.12a24.43,24.43,0,0,0-8.91,1.43,32.28,32.28,0,0,0-6.35,3.26,39.57,39.57,0,0,0-4.27,3.3,6.58,6.58,0,0,1-4.26,2.09,4.34,4.34,0,0,1-2.59-.77,5.51,5.51,0,0,1-1.48-1.59l-2.14-3.66,1.09-1.09A47.57,47.57,0,0,1,97.72,130a38.25,38.25,0,0,1,16.21-3.34,30.12,30.12,0,0,1,11.81,2.17,22.46,22.46,0,0,1,8.59,6.31,27.33,27.33,0,0,1,5.07,9.77,43.93,43.93,0,0,1,1.66,12.43v53.05h-5a4.68,4.68,0,0,1-4.85-3.72l0-.2-.68-6.18c-1.21,1.08-2.43,2.1-3.63,3.05a39.77,39.77,0,0,1-7,4.47,36.12,36.12,0,0,1-7.92,2.84A40.81,40.81,0,0,1,102.66,211.62Zm27.07-39.07a141,141,0,0,0-16.93,1.66A53.54,53.54,0,0,0,100,177.8a18,18,0,0,0-7,5,9.84,9.84,0,0,0-2.11,6.23,14.45,14.45,0,0,0,1.13,6,11.44,11.44,0,0,0,2.94,4,11.82,11.82,0,0,0,4.29,2.32,18.07,18.07,0,0,0,5.32.78,31.82,31.82,0,0,0,7.89-.92,29.09,29.09,0,0,0,6.64-2.58,32.71,32.71,0,0,0,5.75-4c1.64-1.41,3.29-3,4.9-4.58Z"/><path class="cls-4" d="M133.56,135.75a21.6,21.6,0,0,0-8.21-6,29.12,29.12,0,0,0-11.42-2.09,37.08,37.08,0,0,0-15.79,3.25,46.73,46.73,0,0,0-13.2,9.49l-.55.55,1.74,3a4.51,4.51,0,0,0,1.22,1.31,3.31,3.31,0,0,0,2,.58A5.68,5.68,0,0,0,92.93,144a40.61,40.61,0,0,1,4.39-3.38,33.12,33.12,0,0,1,6.54-3.37,25.34,25.34,0,0,1,9.28-1.5c5.79,0,10.21,1.85,13.12,5.49s4.47,9.14,4.47,16.12v7.22a134.23,134.23,0,0,0-22,2.2,60.65,60.65,0,0,0-15.83,5.13,24.35,24.35,0,0,0-9.27,7.74,17.37,17.37,0,0,0-3,9.77,22.74,22.74,0,0,0,1.86,9.6,18.56,18.56,0,0,0,5,6.61,20.6,20.6,0,0,0,7.07,3.81,27,27,0,0,0,8.1,1.23,40,40,0,0,0,9-1,36.14,36.14,0,0,0,7.71-2.76,40.76,40.76,0,0,0,6.83-4.36c1.65-1.31,3.34-2.77,5-4.34l.88,8.07,0,.14a3.7,3.7,0,0,0,3.88,3h4V157.31a43,43,0,0,0-1.62-12.14A26.26,26.26,0,0,0,133.56,135.75Zm-2.83,35.75v19c-1.72,1.76-3.48,3.41-5.24,4.93a34.19,34.19,0,0,1-5.93,4.09,30,30,0,0,1-6.87,2.67,32.94,32.94,0,0,1-8.14,1,19,19,0,0,1-5.61-.82,12.8,12.8,0,0,1-4.65-2.52,12.32,12.32,0,0,1-3.2-4.38,15.42,15.42,0,0,1-1.22-6.4,10.8,10.8,0,0,1,2.32-6.84,18.94,18.94,0,0,1,7.38-5.33,54.87,54.87,0,0,1,13.07-3.67A145,145,0,0,1,130.73,171.5Z"/><path class="cls-5" d="M206,210.36V140H171.74v70.35H160.18V140l-9.16-.59c-3-.32-4.08-2.26-4.08-4v-5.08h13.24v-4.69A39.62,39.62,0,0,1,162.43,112a28.54,28.54,0,0,1,6.69-10.58,29.68,29.68,0,0,1,10.64-6.68,40.24,40.24,0,0,1,14-2.29,37.41,37.41,0,0,1,5.62.46,24.08,24.08,0,0,1,5.2,1.34l1.38.55-.47,5.5,0,.07a2.81,2.81,0,0,1-2.25,2.2,5,5,0,0,1-.92.07c-.29,0-.62,0-1,0-.66,0-1.5-.15-2.5-.29a26.75,26.75,0,0,0-3.24-.17c-7.74,0-13.76,2-17.9,5.84s-6.18,9.89-6.18,18v4.46h45.93v80Z"/><path class="cls-6" d="M170.5,131.41V126c0-8.39,2.19-14.69,6.5-18.72s10.58-6.11,18.58-6.11a26.83,26.83,0,0,1,3.37.18c1,.14,1.81.23,2.45.28a6.93,6.93,0,0,0,1.67,0,1.77,1.77,0,0,0,1.44-1.45l.4-4.68-.69-.27a23.21,23.21,0,0,0-5-1.28,35.65,35.65,0,0,0-5.47-.45,39.27,39.27,0,0,0-13.67,2.23,28.72,28.72,0,0,0-10.28,6.45,27.83,27.83,0,0,0-6.46,10.22,38.79,38.79,0,0,0-2.18,13.38v5.69H147.94v4.08c0,.79.3,2.66,3.14,3l10.1.65v70.26h9.56V139H207v70.35h9.48v-78Z"/><path class="cls-7" d="M300.13,114.3a6.8,6.8,0,0,1-1.81,2.08,4,4,0,0,1-2.36.67,6.12,6.12,0,0,1-3.35-1.26q-1.86-1.26-4.57-2.79a39.69,39.69,0,0,0-6.42-2.84,30.25,30.25,0,0,0-17.14-.12,17.28,17.28,0,0,0-6,3.31,13.63,13.63,0,0,0-3.66,5,15.8,15.8,0,0,0-1.23,6.27,11.22,11.22,0,0,0,2.29,7.2,19.57,19.57,0,0,0,6,4.93,49.07,49.07,0,0,0,8.55,3.58c3.21,1,6.47,2.12,9.81,3.27s6.61,2.47,9.81,3.94a33.77,33.77,0,0,1,8.55,5.59,25.7,25.7,0,0,1,6,8.28,27.8,27.8,0,0,1,2.29,11.89,38.49,38.49,0,0,1-2.6,14.18A33.37,33.37,0,0,1,296.79,199a35,35,0,0,1-12.14,7.76,44.58,44.58,0,0,1-16.42,2.84,52.28,52.28,0,0,1-10.6-1.06,54.89,54.89,0,0,1-9.85-3,48.86,48.86,0,0,1-8.78-4.69,43.93,43.93,0,0,1-7.33-6.14l5.36-8.82a5.19,5.19,0,0,1,1.81-1.74,4.85,4.85,0,0,1,2.44-.63,6.85,6.85,0,0,1,4,1.7q2.2,1.69,5.32,3.7a40.85,40.85,0,0,0,7.52,3.7,29.45,29.45,0,0,0,10.56,1.7q10,0,15.48-4.89T289.66,176a12.71,12.71,0,0,0-2.29-7.84,18.56,18.56,0,0,0-6-5.08,43.82,43.82,0,0,0-8.54-3.47q-4.82-1.41-9.77-3a97.5,97.5,0,0,1-9.77-3.78,30.77,30.77,0,0,1-8.55-5.67,26.5,26.5,0,0,1-6-8.67,31.91,31.91,0,0,1-2.28-12.88,30.66,30.66,0,0,1,9.41-22.1,34.57,34.57,0,0,1,11.39-7.13,41.82,41.82,0,0,1,15.44-2.68,50.39,50.39,0,0,1,17.92,3.08,40.72,40.72,0,0,1,14.06,8.74Z"/><path class="cls-7" d="M335.37,137.54a42.58,42.58,0,0,1,10.87-7.84,30.48,30.48,0,0,1,13.79-3A28.61,28.61,0,0,1,371.65,129a23.29,23.29,0,0,1,8.43,6.22,27,27,0,0,1,5.16,9.65A42.25,42.25,0,0,1,387,157.23v51.13H370.11V157.23q0-8.11-3.74-12.6T355,140.14a21.83,21.83,0,0,0-10.52,2.6,36.11,36.11,0,0,0-9.1,7.08v58.54H318.43V91.76h16.94Z"/><path class="cls-7" d="M400.94,139.19a46,46,0,0,1,32.46-12.68,31.73,31.73,0,0,1,12.32,2.24,24.67,24.67,0,0,1,9.06,6.34,28,28,0,0,1,5.6,9.73,38.55,38.55,0,0,1,1.93,12.49v51.05h-7.56a7.38,7.38,0,0,1-3.71-.75,5.7,5.7,0,0,1-2.12-3L447.26,198A74.46,74.46,0,0,1,441.2,203a38.15,38.15,0,0,1-6.19,3.67,30.9,30.9,0,0,1-6.85,2.24,40.45,40.45,0,0,1-8.08.75,30,30,0,0,1-9.1-1.34,19.87,19.87,0,0,1-7.28-4.06,19.11,19.11,0,0,1-4.85-6.73,23.31,23.31,0,0,1-1.77-9.46,18.22,18.22,0,0,1,2.48-9.06,22.53,22.53,0,0,1,8.19-7.91,53.31,53.31,0,0,1,15.05-5.8,109.58,109.58,0,0,1,23-2.59v-5.36q0-8.67-3.7-12.92t-10.87-4.25a23.65,23.65,0,0,0-8.19,1.22,37.16,37.16,0,0,0-5.76,2.63c-1.62.95-3.07,1.83-4.33,2.65a7.3,7.3,0,0,1-4,1.21,4.83,4.83,0,0,1-3-.9,7.37,7.37,0,0,1-2-2.25Zm44.9,34a107.26,107.26,0,0,0-15.28,1.46,42.79,42.79,0,0,0-10.08,2.92,13.25,13.25,0,0,0-5.56,4.21,9.19,9.19,0,0,0-1.69,5.36,11.78,11.78,0,0,0,.9,4.84,9,9,0,0,0,2.52,3.31,10.16,10.16,0,0,0,3.79,1.89,17.78,17.78,0,0,0,4.76.59,24.45,24.45,0,0,0,11.39-2.48,35.6,35.6,0,0,0,9.25-7.21Z"/><path class="cls-7" d="M490.24,142.89a35.52,35.52,0,0,1,9.14-12,19.63,19.63,0,0,1,12.84-4.37,19.27,19.27,0,0,1,4.89.59,13.59,13.59,0,0,1,4.09,1.77L520,141.63a3.2,3.2,0,0,1-1,1.85,2.87,2.87,0,0,1-1.78.51,18.84,18.84,0,0,1-3.38-.43,24,24,0,0,0-4.65-.43,17.75,17.75,0,0,0-6.26,1,15,15,0,0,0-4.89,3,20.1,20.1,0,0,0-3.82,4.8,46.36,46.36,0,0,0-3.07,6.46v50H474.25V128h9.85c1.78,0,3,.33,3.7,1a6.13,6.13,0,0,1,1.42,3.42Z"/><path class="cls-7" d="M540,169.52a40,40,0,0,0,2.12,11.86,24.6,24.6,0,0,0,4.85,8.31,18.75,18.75,0,0,0,7.25,4.92,26,26,0,0,0,9.41,1.62,28.45,28.45,0,0,0,8.59-1.15,40.45,40.45,0,0,0,6.3-2.52c1.78-.92,3.31-1.76,4.57-2.52a6.81,6.81,0,0,1,3.46-1.14,3.62,3.62,0,0,1,3.15,1.57l4.81,6.23a30.72,30.72,0,0,1-6.77,6,39.6,39.6,0,0,1-8,4,45.77,45.77,0,0,1-8.75,2.2,58.65,58.65,0,0,1-8.74.67,41.89,41.89,0,0,1-15.48-2.8,34.42,34.42,0,0,1-12.37-8.23A38,38,0,0,1,526.14,185a53.49,53.49,0,0,1-3-18.51,45.22,45.22,0,0,1,2.64-15.6,37.24,37.24,0,0,1,7.57-12.61,35.57,35.57,0,0,1,12-8.47,39.2,39.2,0,0,1,15.95-3.11,38.2,38.2,0,0,1,13.71,2.4,30.12,30.12,0,0,1,10.87,7.06A32.42,32.42,0,0,1,593,147.58a42.83,42.83,0,0,1,2.57,15.32q0,3.94-.87,5.28a3.48,3.48,0,0,1-3.15,1.34Zm40.41-10.4a25.08,25.08,0,0,0-1.22-7.92,18.66,18.66,0,0,0-3.59-6.38,16.24,16.24,0,0,0-5.87-4.25,19.83,19.83,0,0,0-8.07-1.54q-9.21,0-14.5,5.28t-6.69,14.81Z"/><rect class="cls-8" x="414.9" y="65.56" width="19.62" height="4.16" rx="1" ry="1"/><rect class="cls-9" x="414.9" y="78.86" width="35.74" height="4.16" rx="1" ry="1"/><rect class="cls-10" x="414.9" y="86.31" width="35.74" height="4.16" rx="1" ry="1"/><rect class="cls-11" x="414.9" y="93.76" width="35.74" height="4.16" rx="1" ry="1"/><rect class="cls-12" x="414.9" y="101.21" width="35.74" height="4.16" rx="1" ry="1"/><rect class="cls-13" x="414.9" y="108.66" width="35.74" height="4.16" rx="1" ry="1"/><path class="cls-14" d="M517.18,79.61c-2.1-12.59-9.84-21.11-22.1-25.16-1.73-.57-1.81-1.2-1.4-2.77a40.15,40.15,0,0,0,0-20.25C489.45,14.8,474.62,2.05,458,.66c-18.26-1.52-34.35,7.83-41.6,24.28-.73,1.66-1.14,1.82-2.69.74-9.58-6.65-20-7.83-30.6-3.19-12.77,5.58-19.31,17.66-18,32.16a1.92,1.92,0,0,1-1.2,2.28A31.48,31.48,0,0,0,361,110.38c6,4.3,12.79,5.68,20,5.67h21.7c.13,0,.24,0,.36,0s.25,0,.38,0a7.58,7.58,0,0,0,4.1-14V58.55H440V69.93c0,2.88,1.14,4,4.06,4h13.55v26.91h0v1.35a7.59,7.59,0,0,0,4.31,13.84c.1,0,.19,0,.28,0a2.3,2.3,0,0,0,.26,0h.05c8.55,0,17.11,0,25.66-.2A30.86,30.86,0,0,0,517.18,79.61Zm-29.24,21.18c-.78,0-1.57.07-2.36.07H462.47q0-14,0-28a5.86,5.86,0,0,0-2.07-4.63q-7.29-6.37-14.55-12.76a6.94,6.94,0,0,0-4.79-1.8H406.5c-2.58,0-3.79,1.22-3.79,3.83q0,21.66,0,43.33H379.65c-11.8,0-21.92.77-24.55-9.92-3.11-12.68,3.41-25,15.85-29.66,1.9-.71,2.39-1.32,1.81-3.4-3.89-13.92,3.61-27.36,17.16-30.53,9.82-2.29,18.13.59,24.7,8.32l4.4,5.18c1.33-6,2.38-11.68,5.37-16.77,7.22-12.3,21.17-18.67,35.88-16.29,13,2.11,24.83,13.78,27.3,27a35.29,35.29,0,0,1-3.12,22.45c-.82,1.7-.76,2.29,1.42,2.43,12.74.85,22.19,8.72,24.54,20.26C511.63,97.28,502.68,99.88,487.94,100.79Z"/></svg>